<svg xmlns="http://www.w3.org/2000/svg" viewBox="0 0 512 512">
  <path fill="#9CA3AF" d="M0 224c0 17.7 14.3 32 32 32h32.1C100.2 310.6 150.5 352 208 367.3V304c0-17.7 14.3-32 32-32h96c17.7 0 32 14.3 32 32v63.3c91.7-24.4 160-107.1 160-205.3C512 71.6 440.4 0 352 0c-55.1 0-103.7 27.7-132.7 70.1l45.3 45.3c12.5 12.5 3.7 33.9-14 33.9H96c-8.8 0-16-7.2-16-16V8.4c0-17.7 21.4-26.6 33.9-14l45.6 45.6C196.6 15.3 271.4-12.1 352 4.2C454.6 25.2 512 121.2 512 224c0 123.7-100.3 224-224 224S64 347.7 64 224H32c-17.7 0-32-14.3-32-32z"/>
  <path fill="#9CA3AF" d="M320 128c0-17.7-14.3-32-32-32s-32 14.3-32 32v96c0 8.5 3.4 16.6 9.4 22.6l64 64c12.5 12.5 32.8 12.5 45.3 0s12.5-32.8 0-45.3L320 210.7V128z"/>
</svg>

