<svg xmlns="http://www.w3.org/2000/svg" viewBox="0 0 512 512">
  <path fill="#111827" d="M487.4 315.7l-42.6-24.6c2.9-14.9 2.9-30.3 0-45.2l42.6-24.6c12.2-7.1 17.4-22 12.3-35.5l-45.5-118c-5.1-13.5-19-21-33.2-17.8l-49.4 11.3c-11.6-10.2-24.7-18.1-38.9-23.5L326.6 24.6C323.5 10.3 311 0 296 0H216c-15 0-27.5 10.3-30.6 24.6l-9.8 47.3c-14.2 5.4-27.3 13.3-38.9 23.5L87.3 84.1c-14.2-3.2-28.1 4.3-33.2 17.8l-45.5 118c-5.1 13.5 .1 28.4 12.3 35.5l42.6 24.6c-2.9 14.9-2.9 30.3 0 45.2L20.9 349.8c-12.2 7.1-17.4 22-12.3 35.5l45.5 118c5.1 13.5 19 21 33.2 17.8l49.4-11.3c11.6 10.2 24.7 18.1 38.9 23.5l9.8 47.3C188.5 501.7 201 512 216 512h80c15 0 27.5-10.3 30.6-24.6l9.8-47.3c14.2-5.4 27.3-13.3 38.9-23.5l49.4 11.3c14.2 3.2 28.1-4.3 33.2-17.8l45.5-118c5.1-13.5-.1-28.4-12.3-35.5zM256 336a80 80 0 1 1 0-160 80 80 0 1 1 0 160z"/>
</svg>
