<svg xmlns="http://www.w3.org/2000/svg" viewBox="0 0 640 512">
  <path fill="#FFFFFF" d="M320 64.1c0-12.1-6.8-23.1-17.7-28.6s-23.8-4.6-33.8 2.3L163.1 128H64c-35.3 0-64 28.7-64 64V320c0 35.3 28.7 64 64 64h99.1l105.4 89.2c10 7 22.9 7.8 33.8 2.3S320 460 320 447.9V64.1zM414.5 97.9c-10.2-7.5-24.3-5.3-31.8 4.9s-5.3 24.3 4.9 31.8C432.6 168.4 448 199.9 448 256s-15.4 87.6-60.4 121.4c-10.2 7.5-12.4 21.7-4.9 31.8s21.7 12.4 31.8 4.9C470.9 371.6 496 316.6 496 256s-25.1-115.6-81.5-158.1zM512 256c0 88.4-39.7 165.6-102.4 218.7c-9.7 8.3-11 22.7-2.7 32.4s22.7 11 32.4 2.7C513.4 451.1 560 358.8 560 256S513.4 60.9 439.3 2.2c-9.7-8.3-24.1-7-32.4 2.7s-7 24.1 2.7 32.4C472.3 90.4 512 167.6 512 256z"/>
</svg>

